<svg id="visual" viewBox="0 0 900 600" width="900" height="600" xmlns="http://www.w3.org/2000/svg" xmlns:xlink="http://www.w3.org/1999/xlink" version="1.1"><rect x="0" y="0" width="900" height="600" fill="#001220"></rect><defs><linearGradient id="grad1_0" x1="33.3%" y1="0%" x2="100%" y2="100%"><stop offset="20%" stop-color="#001220" stop-opacity="1"></stop><stop offset="80%" stop-color="#001220" stop-opacity="1"></stop></linearGradient></defs><defs><linearGradient id="grad2_0" x1="0%" y1="0%" x2="66.7%" y2="100%"><stop offset="20%" stop-color="#001220" stop-opacity="1"></stop><stop offset="80%" stop-color="#001220" stop-opacity="1"></stop></linearGradient></defs><g transform="translate(900, 0)"><path d="M0 486.7C-68 485.4 -136.1 484 -186.3 449.7C-236.5 415.4 -268.8 348.1 -294.2 294.2C-319.5 240.2 -337.7 199.5 -368.6 152.7C-399.5 105.9 -443.1 52.9 -486.7 0L0 0Z" fill="#FBAE3C"></path></g><g transform="translate(0, 600)"><path d="M0 -486.7C55.7 -458.4 111.4 -430 169.1 -408.4C226.9 -386.7 286.7 -371.8 336.6 -336.6C386.4 -301.3 426.3 -245.8 449.7 -186.3C473.1 -126.8 479.9 -63.4 486.7 0L0 0Z" fill="#FBAE3C"></path></g></svg>